<svg xmlns="http://www.w3.org/2000/svg" xmlns:xlink="http://www.w3.org/1999/xlink" width="178" zoomAndPan="magnify" viewBox="0 0 133.5 44.999999" height="60" preserveAspectRatio="xMidYMid meet" version="1.0"><defs><g/><clipPath id="44e45dc932"><path d="M 0.136719 2 L 43.378906 2 L 43.378906 39.925781 L 0.136719 39.925781 Z M 0.136719 2 " clip-rule="nonzero"/></clipPath><clipPath id="3e1ce8b026"><path d="M 8 1.167969 L 30 1.167969 L 30 28 L 8 28 Z M 8 1.167969 " clip-rule="nonzero"/></clipPath><clipPath id="ff8c5e37bf"><path d="M 32 7 L 132.941406 7 L 132.941406 29 L 32 29 Z M 32 7 " clip-rule="nonzero"/></clipPath><clipPath id="fed04de8b8"><path d="M 91 8 L 100.703125 8 L 100.703125 17 L 91 17 Z M 91 8 " clip-rule="nonzero"/></clipPath><clipPath id="fbbe3850ce"><rect x="0" width="101" y="0" height="22"/></clipPath><clipPath id="96a6f57eec"><path d="M 45 29 L 132.941406 29 L 132.941406 35 L 45 35 Z M 45 29 " clip-rule="nonzero"/></clipPath><clipPath id="6cba900538"><path d="M 0.429688 1 L 3 1 L 3 5 L 0.429688 5 Z M 0.429688 1 " clip-rule="nonzero"/></clipPath><clipPath id="61aaafbb71"><path d="M 84 1 L 87.941406 1 L 87.941406 5 L 84 5 Z M 84 1 " clip-rule="nonzero"/></clipPath><clipPath id="f716b46954"><rect x="0" width="88" y="0" height="6"/></clipPath><clipPath id="43ed594a53"><rect x="0" width="133" y="0" height="40"/></clipPath></defs><g transform="matrix(1, 0, 0, 1, 0, 2)"><g clip-path="url(#43ed594a53)"><g clip-path="url(#44e45dc932)"><path fill="#124aff" d="M 20.960938 8.945312 C 21.292969 9.214844 21.347656 9.699219 21.078125 10.03125 C 20.8125 10.367188 20.324219 10.417969 19.992188 10.152344 L 12.921875 4.4375 L 6.425781 9.71875 L 6.425781 26.503906 C 6.425781 26.875 6.164062 27.1875 5.816406 27.261719 C 4.523438 27.617188 3.449219 28.402344 2.722656 29.433594 C 1.988281 30.476562 1.605469 31.769531 1.714844 33.117188 C 1.820312 34.46875 2.402344 35.683594 3.292969 36.59375 C 4.183594 37.507812 5.382812 38.117188 6.730469 38.253906 C 8.078125 38.394531 9.378906 38.042969 10.4375 37.332031 C 11.492188 36.621094 12.3125 35.550781 12.691406 34.253906 C 12.789062 33.914062 13.097656 33.695312 13.433594 33.695312 L 26.140625 33.695312 L 28.417969 31.417969 C 28.722656 31.113281 29.210938 31.113281 29.515625 31.417969 C 29.550781 31.449219 29.578125 31.488281 29.605469 31.527344 L 31.519531 33.800781 L 32.875 32.039062 C 33.136719 31.703125 33.621094 31.640625 33.957031 31.902344 C 33.992188 31.929688 34.027344 31.957031 34.054688 31.988281 L 35.761719 33.835938 L 37.378906 31.75 C 37.640625 31.410156 38.125 31.347656 38.464844 31.609375 C 38.511719 31.648438 38.554688 31.691406 38.59375 31.738281 L 39.984375 33.46875 L 41.496094 31.640625 L 40.292969 30.1875 L 12.816406 30.1875 C 12.386719 30.1875 12.039062 29.839844 12.039062 29.410156 C 12.039062 28.984375 12.386719 28.636719 12.816406 28.636719 L 40.65625 28.636719 C 40.878906 28.636719 41.097656 28.734375 41.253906 28.917969 L 43.09375 31.148438 C 43.324219 31.425781 43.332031 31.839844 43.09375 32.132812 L 40.597656 35.15625 C 40.558594 35.207031 40.515625 35.253906 40.460938 35.296875 C 40.128906 35.5625 39.644531 35.511719 39.375 35.175781 L 38.003906 33.46875 L 36.445312 35.476562 C 36.414062 35.519531 36.378906 35.5625 36.335938 35.601562 C 36.023438 35.890625 35.53125 35.871094 35.242188 35.554688 L 33.539062 33.710938 L 32.160156 35.503906 C 32.125 35.546875 32.089844 35.585938 32.046875 35.621094 C 31.71875 35.898438 31.234375 35.855469 30.957031 35.527344 L 28.921875 33.109375 L 27.019531 35.011719 C 26.878906 35.15625 26.679688 35.246094 26.460938 35.246094 L 13.988281 35.246094 C 13.445312 36.652344 12.492188 37.8125 11.296875 38.617188 C 9.945312 39.523438 8.289062 39.96875 6.574219 39.792969 C 4.855469 39.617188 3.324219 38.839844 2.1875 37.675781 C 1.050781 36.511719 0.308594 34.960938 0.171875 33.242188 C 0.0351562 31.523438 0.519531 29.875 1.457031 28.546875 C 2.285156 27.375 3.464844 26.449219 4.878906 25.9375 L 4.878906 9.355469 C 4.878906 9.132812 4.976562 8.910156 5.164062 8.757812 L 12.414062 2.863281 C 12.691406 2.621094 13.109375 2.605469 13.402344 2.84375 L 20.960938 8.949219 Z M 11.242188 8.117188 L 12.507812 8.117188 L 12.507812 9.382812 L 11.242188 9.382812 Z M 13.191406 8.117188 L 14.457031 8.117188 L 14.457031 9.382812 L 13.191406 9.382812 Z M 14.457031 10.066406 L 14.457031 11.332031 L 13.191406 11.332031 L 13.191406 10.066406 Z M 12.507812 11.332031 L 11.242188 11.332031 L 11.242188 10.066406 L 12.507812 10.066406 Z M 7.253906 30.972656 C 8.234375 30.972656 9.035156 31.769531 9.035156 32.753906 C 9.035156 33.738281 8.234375 34.535156 7.253906 34.535156 C 6.269531 34.535156 5.46875 33.738281 5.46875 32.753906 C 5.46875 31.769531 6.265625 30.972656 7.253906 30.972656 Z M 7.253906 30.972656 " fill-opacity="1" fill-rule="evenodd"/></g><g clip-path="url(#3e1ce8b026)"><path fill="#000000" d="M 29.777344 26.792969 C 29.777344 27.222656 29.429688 27.570312 29.003906 27.570312 L 23.238281 27.570312 C 22.808594 27.570312 22.460938 27.222656 22.460938 26.792969 L 22.460938 19.601562 L 15.105469 13.558594 L 9.398438 18.375 C 9.070312 18.648438 8.582031 18.609375 8.308594 18.285156 C 8.03125 17.957031 8.070312 17.46875 8.398438 17.191406 L 14.597656 11.960938 C 14.878906 11.726562 15.296875 11.714844 15.589844 11.957031 L 23.675781 18.597656 C 23.878906 18.738281 24.011719 18.972656 24.011719 19.238281 L 24.011719 26.019531 L 28.226562 26.019531 L 28.226562 8.042969 L 21.449219 2.917969 L 18.820312 4.972656 C 18.484375 5.234375 18 5.175781 17.734375 4.839844 C 17.472656 4.503906 17.535156 4.019531 17.867188 3.757812 L 20.929688 1.367188 C 21.199219 1.125 21.609375 1.097656 21.910156 1.324219 L 29.433594 7.015625 C 29.640625 7.152344 29.777344 7.390625 29.777344 7.660156 Z M 13.382812 18 L 14.648438 18 L 14.648438 19.265625 L 13.382812 19.265625 Z M 15.328125 18 L 16.59375 18 L 16.59375 19.265625 L 15.328125 19.265625 Z M 16.59375 19.949219 L 16.59375 21.214844 L 15.328125 21.214844 L 15.328125 19.949219 Z M 14.648438 21.214844 L 13.382812 21.214844 L 13.382812 19.949219 L 14.648438 19.949219 Z M 14.648438 21.214844 " fill-opacity="1" fill-rule="nonzero"/></g><g clip-path="url(#ff8c5e37bf)"><g transform="matrix(1, 0, 0, 1, 32, 7)"><g clip-path="url(#fbbe3850ce)"><g fill="#000000" fill-opacity="1"><g transform="translate(0.511987, 16.322735)"><g><path d="M 1.09375 0 L 1.09375 -11.203125 L 5.234375 -11.203125 C 6.128906 -11.203125 6.867188 -11.050781 7.453125 -10.75 C 8.046875 -10.457031 8.484375 -10.050781 8.765625 -9.53125 C 9.054688 -9.007812 9.203125 -8.421875 9.203125 -7.765625 C 9.203125 -7.148438 9.0625 -6.582031 8.78125 -6.0625 C 8.507812 -5.539062 8.078125 -5.125 7.484375 -4.8125 C 6.898438 -4.5 6.148438 -4.34375 5.234375 -4.34375 L 3.140625 -4.34375 L 3.140625 0 Z M 3.140625 -6 L 5.109375 -6 C 5.828125 -6 6.34375 -6.15625 6.65625 -6.46875 C 6.96875 -6.789062 7.125 -7.222656 7.125 -7.765625 C 7.125 -8.316406 6.96875 -8.75 6.65625 -9.0625 C 6.34375 -9.382812 5.828125 -9.546875 5.109375 -9.546875 L 3.140625 -9.546875 Z M 3.140625 -6 "/></g></g></g><g fill="#000000" fill-opacity="1"><g transform="translate(9.913035, 16.322735)"><g><path d="M 1.046875 0 L 1.046875 -7.9375 L 2.859375 -7.9375 L 3.0625 -6.453125 C 3.34375 -6.960938 3.734375 -7.367188 4.234375 -7.671875 C 4.734375 -7.984375 5.316406 -8.140625 5.984375 -8.140625 L 5.984375 -5.96875 L 5.40625 -5.96875 C 4.957031 -5.96875 4.554688 -5.898438 4.203125 -5.765625 C 3.859375 -5.628906 3.585938 -5.390625 3.390625 -5.046875 C 3.191406 -4.703125 3.09375 -4.226562 3.09375 -3.625 L 3.09375 0 Z M 1.046875 0 "/></g></g></g><g fill="#000000" fill-opacity="1"><g transform="translate(15.934823, 16.322735)"><g><path d="M 4.859375 0.1875 C 4.085938 0.1875 3.394531 0.015625 2.78125 -0.328125 C 2.164062 -0.679688 1.675781 -1.171875 1.3125 -1.796875 C 0.957031 -2.421875 0.78125 -3.144531 0.78125 -3.96875 C 0.78125 -4.789062 0.960938 -5.515625 1.328125 -6.140625 C 1.691406 -6.765625 2.179688 -7.253906 2.796875 -7.609375 C 3.410156 -7.960938 4.101562 -8.140625 4.875 -8.140625 C 5.625 -8.140625 6.304688 -7.960938 6.921875 -7.609375 C 7.535156 -7.253906 8.019531 -6.765625 8.375 -6.140625 C 8.738281 -5.515625 8.921875 -4.789062 8.921875 -3.96875 C 8.921875 -3.144531 8.738281 -2.421875 8.375 -1.796875 C 8.019531 -1.171875 7.53125 -0.679688 6.90625 -0.328125 C 6.289062 0.015625 5.609375 0.1875 4.859375 0.1875 Z M 4.859375 -1.578125 C 5.390625 -1.578125 5.851562 -1.773438 6.25 -2.171875 C 6.644531 -2.578125 6.84375 -3.175781 6.84375 -3.96875 C 6.84375 -4.757812 6.644531 -5.351562 6.25 -5.75 C 5.851562 -6.15625 5.394531 -6.359375 4.875 -6.359375 C 4.320312 -6.359375 3.847656 -6.15625 3.453125 -5.75 C 3.066406 -5.351562 2.875 -4.757812 2.875 -3.96875 C 2.875 -3.175781 3.066406 -2.578125 3.453125 -2.171875 C 3.847656 -1.773438 4.316406 -1.578125 4.859375 -1.578125 Z M 4.859375 -1.578125 "/></g></g></g><g fill="#000000" fill-opacity="1"><g transform="translate(25.319856, 16.322735)"><g><path d="M 1.046875 3.515625 L 1.046875 -7.9375 L 2.859375 -7.9375 L 3.09375 -6.8125 C 3.34375 -7.15625 3.675781 -7.460938 4.09375 -7.734375 C 4.519531 -8.003906 5.070312 -8.140625 5.75 -8.140625 C 6.5 -8.140625 7.164062 -7.957031 7.75 -7.59375 C 8.332031 -7.226562 8.796875 -6.726562 9.140625 -6.09375 C 9.484375 -5.46875 9.65625 -4.753906 9.65625 -3.953125 C 9.65625 -3.148438 9.484375 -2.4375 9.140625 -1.8125 C 8.796875 -1.1875 8.332031 -0.695312 7.75 -0.34375 C 7.164062 0.0078125 6.5 0.1875 5.75 0.1875 C 5.15625 0.1875 4.628906 0.078125 4.171875 -0.140625 C 3.722656 -0.367188 3.363281 -0.6875 3.09375 -1.09375 L 3.09375 3.515625 Z M 5.3125 -1.59375 C 5.96875 -1.59375 6.507812 -1.8125 6.9375 -2.25 C 7.363281 -2.695312 7.578125 -3.265625 7.578125 -3.953125 C 7.578125 -4.648438 7.363281 -5.222656 6.9375 -5.671875 C 6.507812 -6.117188 5.96875 -6.34375 5.3125 -6.34375 C 4.65625 -6.34375 4.113281 -6.117188 3.6875 -5.671875 C 3.269531 -5.234375 3.0625 -4.664062 3.0625 -3.96875 C 3.0625 -3.28125 3.269531 -2.710938 3.6875 -2.265625 C 4.113281 -1.816406 4.65625 -1.59375 5.3125 -1.59375 Z M 5.3125 -1.59375 "/></g></g></g><g fill="#000000" fill-opacity="1"><g transform="translate(35.4416, 16.322735)"><g><path d="M 4.90625 0.1875 C 4.101562 0.1875 3.390625 0.0195312 2.765625 -0.3125 C 2.148438 -0.65625 1.664062 -1.132812 1.3125 -1.75 C 0.957031 -2.375 0.78125 -3.09375 0.78125 -3.90625 C 0.78125 -4.726562 0.953125 -5.457031 1.296875 -6.09375 C 1.648438 -6.738281 2.132812 -7.238281 2.75 -7.59375 C 3.363281 -7.957031 4.085938 -8.140625 4.921875 -8.140625 C 5.691406 -8.140625 6.375 -7.96875 6.96875 -7.625 C 7.570312 -7.28125 8.039062 -6.8125 8.375 -6.21875 C 8.71875 -5.625 8.890625 -4.96875 8.890625 -4.25 C 8.890625 -4.125 8.882812 -4 8.875 -3.875 C 8.875 -3.75 8.867188 -3.613281 8.859375 -3.46875 L 2.8125 -3.46875 C 2.851562 -2.851562 3.066406 -2.367188 3.453125 -2.015625 C 3.847656 -1.660156 4.328125 -1.484375 4.890625 -1.484375 C 5.304688 -1.484375 5.65625 -1.578125 5.9375 -1.765625 C 6.21875 -1.953125 6.425781 -2.195312 6.5625 -2.5 L 8.640625 -2.5 C 8.492188 -2 8.25 -1.539062 7.90625 -1.125 C 7.5625 -0.71875 7.132812 -0.394531 6.625 -0.15625 C 6.113281 0.0703125 5.539062 0.1875 4.90625 0.1875 Z M 4.921875 -6.46875 C 4.410156 -6.46875 3.960938 -6.328125 3.578125 -6.046875 C 3.203125 -5.765625 2.957031 -5.332031 2.84375 -4.75 L 6.8125 -4.75 C 6.78125 -5.28125 6.585938 -5.695312 6.234375 -6 C 5.878906 -6.3125 5.441406 -6.46875 4.921875 -6.46875 Z M 4.921875 -6.46875 "/></g></g></g><g fill="#000000" fill-opacity="1"><g transform="translate(44.698507, 16.322735)"><g><path d="M 1.046875 0 L 1.046875 -7.9375 L 2.859375 -7.9375 L 3.0625 -6.453125 C 3.34375 -6.960938 3.734375 -7.367188 4.234375 -7.671875 C 4.734375 -7.984375 5.316406 -8.140625 5.984375 -8.140625 L 5.984375 -5.96875 L 5.40625 -5.96875 C 4.957031 -5.96875 4.554688 -5.898438 4.203125 -5.765625 C 3.859375 -5.628906 3.585938 -5.390625 3.390625 -5.046875 C 3.191406 -4.703125 3.09375 -4.226562 3.09375 -3.625 L 3.09375 0 Z M 1.046875 0 "/></g></g></g><g fill="#000000" fill-opacity="1"><g transform="translate(50.7203, 16.322735)"><g><path d="M 4.578125 0 C 3.742188 0 3.078125 -0.203125 2.578125 -0.609375 C 2.078125 -1.015625 1.828125 -1.734375 1.828125 -2.765625 L 1.828125 -6.234375 L 0.46875 -6.234375 L 0.46875 -7.9375 L 1.828125 -7.9375 L 2.0625 -10.078125 L 3.875 -10.078125 L 3.875 -7.9375 L 6.015625 -7.9375 L 6.015625 -6.234375 L 3.875 -6.234375 L 3.875 -2.75 C 3.875 -2.363281 3.957031 -2.097656 4.125 -1.953125 C 4.289062 -1.816406 4.578125 -1.75 4.984375 -1.75 L 5.96875 -1.75 L 5.96875 0 Z M 4.578125 0 "/></g></g></g><g fill="#000000" fill-opacity="1"><g transform="translate(57.14247, 16.322735)"><g><path d="M 0.859375 -3.78125 L 0.859375 -5.5 L 7.578125 -5.5 L 7.578125 -3.78125 Z M 0.859375 -3.78125 "/></g></g></g><g fill="#000000" fill-opacity="1"><g transform="translate(65.262282, 16.322735)"><g><path d="M 1.09375 0 L 1.09375 -11.203125 L 8.40625 -11.203125 L 8.40625 -9.5625 L 3.140625 -9.5625 L 3.140625 -6.484375 L 7.921875 -6.484375 L 7.921875 -4.890625 L 3.140625 -4.890625 L 3.140625 -1.65625 L 8.40625 -1.65625 L 8.40625 0 Z M 1.09375 0 "/></g></g></g><g fill="#000000" fill-opacity="1"><g transform="translate(74.198883, 16.322735)"><g><path d="M 3.78125 0.1875 C 3.09375 0.1875 2.53125 0.078125 2.09375 -0.140625 C 1.65625 -0.359375 1.328125 -0.644531 1.109375 -1 C 0.898438 -1.363281 0.796875 -1.765625 0.796875 -2.203125 C 0.796875 -2.941406 1.082031 -3.539062 1.65625 -4 C 2.238281 -4.457031 3.109375 -4.6875 4.265625 -4.6875 L 6.28125 -4.6875 L 6.28125 -4.890625 C 6.28125 -5.429688 6.125 -5.828125 5.8125 -6.078125 C 5.5 -6.335938 5.113281 -6.46875 4.65625 -6.46875 C 4.238281 -6.46875 3.875 -6.367188 3.5625 -6.171875 C 3.257812 -5.972656 3.070312 -5.679688 3 -5.296875 L 1 -5.296875 C 1.050781 -5.878906 1.242188 -6.382812 1.578125 -6.8125 C 1.910156 -7.238281 2.34375 -7.566406 2.875 -7.796875 C 3.414062 -8.023438 4.015625 -8.140625 4.671875 -8.140625 C 5.804688 -8.140625 6.695312 -7.851562 7.34375 -7.28125 C 8 -6.71875 8.328125 -5.921875 8.328125 -4.890625 L 8.328125 0 L 6.578125 0 L 6.390625 -1.28125 C 6.148438 -0.851562 5.816406 -0.5 5.390625 -0.21875 C 4.972656 0.0507812 4.4375 0.1875 3.78125 0.1875 Z M 4.25 -1.40625 C 4.832031 -1.40625 5.285156 -1.597656 5.609375 -1.984375 C 5.941406 -2.367188 6.148438 -2.84375 6.234375 -3.40625 L 4.484375 -3.40625 C 3.941406 -3.40625 3.550781 -3.304688 3.3125 -3.109375 C 3.082031 -2.910156 2.96875 -2.671875 2.96875 -2.390625 C 2.96875 -2.078125 3.082031 -1.832031 3.3125 -1.65625 C 3.550781 -1.488281 3.863281 -1.40625 4.25 -1.40625 Z M 4.25 -1.40625 "/></g></g></g><g fill="#000000" fill-opacity="1"><g transform="translate(83.119463, 16.322735)"><g><path d="M 4.328125 0.1875 C 3.617188 0.1875 3 0.0703125 2.46875 -0.15625 C 1.9375 -0.382812 1.507812 -0.703125 1.1875 -1.109375 C 0.863281 -1.515625 0.671875 -1.984375 0.609375 -2.515625 L 2.671875 -2.515625 C 2.734375 -2.203125 2.90625 -1.9375 3.1875 -1.71875 C 3.476562 -1.5 3.847656 -1.390625 4.296875 -1.390625 C 4.742188 -1.390625 5.070312 -1.476562 5.28125 -1.65625 C 5.488281 -1.84375 5.59375 -2.054688 5.59375 -2.296875 C 5.59375 -2.628906 5.441406 -2.859375 5.140625 -2.984375 C 4.835938 -3.109375 4.421875 -3.226562 3.890625 -3.34375 C 3.546875 -3.414062 3.195312 -3.503906 2.84375 -3.609375 C 2.5 -3.722656 2.175781 -3.863281 1.875 -4.03125 C 1.582031 -4.195312 1.34375 -4.410156 1.15625 -4.671875 C 0.976562 -4.929688 0.890625 -5.253906 0.890625 -5.640625 C 0.890625 -6.335938 1.171875 -6.925781 1.734375 -7.40625 C 2.296875 -7.894531 3.082031 -8.140625 4.09375 -8.140625 C 5.039062 -8.140625 5.789062 -7.921875 6.34375 -7.484375 C 6.90625 -7.046875 7.238281 -6.441406 7.34375 -5.671875 L 5.40625 -5.671875 C 5.289062 -6.253906 4.847656 -6.546875 4.078125 -6.546875 C 3.691406 -6.546875 3.394531 -6.472656 3.1875 -6.328125 C 2.976562 -6.179688 2.875 -5.992188 2.875 -5.765625 C 2.875 -5.523438 3.03125 -5.335938 3.34375 -5.203125 C 3.65625 -5.066406 4.066406 -4.941406 4.578125 -4.828125 C 5.128906 -4.691406 5.640625 -4.546875 6.109375 -4.390625 C 6.578125 -4.234375 6.945312 -4.003906 7.21875 -3.703125 C 7.5 -3.398438 7.640625 -2.96875 7.640625 -2.40625 C 7.648438 -1.914062 7.519531 -1.472656 7.25 -1.078125 C 6.988281 -0.679688 6.601562 -0.367188 6.09375 -0.140625 C 5.59375 0.078125 5.003906 0.1875 4.328125 0.1875 Z M 4.328125 0.1875 "/></g></g></g><g clip-path="url(#fed04de8b8)"><g fill="#000000" fill-opacity="1"><g transform="translate(91.207246, 16.322735)"><g><path d="M 4.90625 0.1875 C 4.101562 0.1875 3.390625 0.0195312 2.765625 -0.3125 C 2.148438 -0.65625 1.664062 -1.132812 1.3125 -1.75 C 0.957031 -2.375 0.78125 -3.09375 0.78125 -3.90625 C 0.78125 -4.726562 0.953125 -5.457031 1.296875 -6.09375 C 1.648438 -6.738281 2.132812 -7.238281 2.75 -7.59375 C 3.363281 -7.957031 4.085938 -8.140625 4.921875 -8.140625 C 5.691406 -8.140625 6.375 -7.96875 6.96875 -7.625 C 7.570312 -7.28125 8.039062 -6.8125 8.375 -6.21875 C 8.71875 -5.625 8.890625 -4.96875 8.890625 -4.25 C 8.890625 -4.125 8.882812 -4 8.875 -3.875 C 8.875 -3.75 8.867188 -3.613281 8.859375 -3.46875 L 2.8125 -3.46875 C 2.851562 -2.851562 3.066406 -2.367188 3.453125 -2.015625 C 3.847656 -1.660156 4.328125 -1.484375 4.890625 -1.484375 C 5.304688 -1.484375 5.65625 -1.578125 5.9375 -1.765625 C 6.21875 -1.953125 6.425781 -2.195312 6.5625 -2.5 L 8.640625 -2.5 C 8.492188 -2 8.25 -1.539062 7.90625 -1.125 C 7.5625 -0.71875 7.132812 -0.394531 6.625 -0.15625 C 6.113281 0.0703125 5.539062 0.1875 4.90625 0.1875 Z M 4.921875 -6.46875 C 4.410156 -6.46875 3.960938 -6.328125 3.578125 -6.046875 C 3.203125 -5.765625 2.957031 -5.332031 2.84375 -4.75 L 6.8125 -4.75 C 6.78125 -5.28125 6.585938 -5.695312 6.234375 -6 C 5.878906 -6.3125 5.441406 -6.46875 4.921875 -6.46875 Z M 4.921875 -6.46875 "/></g></g></g></g></g></g></g><g clip-path="url(#96a6f57eec)"><g transform="matrix(1, 0, 0, 1, 45, 29)"><g clip-path="url(#f716b46954)"><g clip-path="url(#6cba900538)"><g fill="#124aff" fill-opacity="1"><g transform="translate(0.509994, 4.531833)"><g><path d="M 0.328125 0 C 0.285156 0 0.265625 -0.0234375 0.265625 -0.078125 L 0.265625 -2.9375 C 0.265625 -2.976562 0.285156 -3 0.328125 -3 L 1.390625 -3 C 1.597656 -3 1.785156 -2.960938 1.953125 -2.890625 C 2.117188 -2.816406 2.242188 -2.710938 2.328125 -2.578125 C 2.421875 -2.441406 2.46875 -2.28125 2.46875 -2.09375 L 2.46875 -0.90625 C 2.46875 -0.726562 2.421875 -0.570312 2.328125 -0.4375 C 2.242188 -0.300781 2.117188 -0.191406 1.953125 -0.109375 C 1.785156 -0.0351562 1.597656 0 1.390625 0 Z M 0.875 -0.546875 C 0.875 -0.523438 0.878906 -0.515625 0.890625 -0.515625 L 1.40625 -0.515625 C 1.539062 -0.515625 1.648438 -0.554688 1.734375 -0.640625 C 1.816406 -0.734375 1.859375 -0.859375 1.859375 -1.015625 L 1.859375 -2 C 1.859375 -2.144531 1.816406 -2.257812 1.734375 -2.34375 C 1.648438 -2.4375 1.539062 -2.484375 1.40625 -2.484375 L 0.890625 -2.484375 C 0.878906 -2.484375 0.875 -2.476562 0.875 -2.46875 Z M 0.875 -0.546875 "/></g></g></g></g><g fill="#124aff" fill-opacity="1"><g transform="translate(3.599071, 4.531833)"><g><path d="M 0.328125 0 C 0.285156 0 0.265625 -0.0234375 0.265625 -0.078125 L 0.265625 -2.9375 C 0.265625 -2.976562 0.285156 -3 0.328125 -3 L 0.796875 -3 C 0.847656 -3 0.875 -2.976562 0.875 -2.9375 L 0.875 -0.078125 C 0.875 -0.0234375 0.847656 0 0.796875 0 Z M 0.328125 0 "/></g></g></g><g fill="#124aff" fill-opacity="1"><g transform="translate(5.160848, 4.531833)"><g><path d="M 1.3125 0.03125 C 1.09375 0.03125 0.898438 -0.0078125 0.734375 -0.09375 C 0.566406 -0.1875 0.4375 -0.3125 0.34375 -0.46875 C 0.25 -0.625 0.203125 -0.804688 0.203125 -1.015625 L 0.203125 -1.984375 C 0.203125 -2.191406 0.25 -2.375 0.34375 -2.53125 C 0.4375 -2.695312 0.566406 -2.820312 0.734375 -2.90625 C 0.898438 -3 1.09375 -3.046875 1.3125 -3.046875 C 1.53125 -3.046875 1.722656 -3 1.890625 -2.90625 C 2.054688 -2.820312 2.1875 -2.707031 2.28125 -2.5625 C 2.375 -2.414062 2.421875 -2.253906 2.421875 -2.078125 L 2.421875 -2.0625 C 2.421875 -2.007812 2.398438 -1.984375 2.359375 -1.984375 L 1.890625 -1.984375 C 1.867188 -1.984375 1.851562 -1.988281 1.84375 -2 C 1.832031 -2.007812 1.828125 -2.019531 1.828125 -2.03125 L 1.828125 -2.046875 C 1.828125 -2.179688 1.78125 -2.289062 1.6875 -2.375 C 1.59375 -2.46875 1.46875 -2.515625 1.3125 -2.515625 C 1.164062 -2.515625 1.046875 -2.46875 0.953125 -2.375 C 0.859375 -2.28125 0.8125 -2.15625 0.8125 -2 L 0.8125 -1 C 0.8125 -0.84375 0.859375 -0.71875 0.953125 -0.625 C 1.054688 -0.53125 1.1875 -0.484375 1.34375 -0.484375 C 1.488281 -0.484375 1.601562 -0.519531 1.6875 -0.59375 C 1.78125 -0.675781 1.828125 -0.789062 1.828125 -0.9375 L 1.828125 -1.125 C 1.828125 -1.132812 1.816406 -1.140625 1.796875 -1.140625 L 1.34375 -1.140625 C 1.300781 -1.140625 1.28125 -1.164062 1.28125 -1.21875 L 1.28125 -1.578125 C 1.28125 -1.617188 1.300781 -1.640625 1.34375 -1.640625 L 2.359375 -1.640625 C 2.398438 -1.640625 2.421875 -1.617188 2.421875 -1.578125 L 2.421875 -1.03125 C 2.421875 -0.8125 2.375 -0.617188 2.28125 -0.453125 C 2.195312 -0.296875 2.070312 -0.175781 1.90625 -0.09375 C 1.738281 -0.0078125 1.539062 0.03125 1.3125 0.03125 Z M 1.3125 0.03125 "/></g></g></g><g fill="#124aff" fill-opacity="1"><g transform="translate(8.2026, 4.531833)"><g><path d="M 0.328125 0 C 0.285156 0 0.265625 -0.0234375 0.265625 -0.078125 L 0.265625 -2.9375 C 0.265625 -2.976562 0.285156 -3 0.328125 -3 L 0.796875 -3 C 0.847656 -3 0.875 -2.976562 0.875 -2.9375 L 0.875 -0.078125 C 0.875 -0.0234375 0.847656 0 0.796875 0 Z M 0.328125 0 "/></g></g></g><g fill="#124aff" fill-opacity="1"><g transform="translate(9.764377, 4.531833)"><g><path d="M 2.3125 -3 C 2.363281 -3 2.390625 -2.976562 2.390625 -2.9375 L 2.390625 -2.5625 C 2.390625 -2.507812 2.363281 -2.484375 2.3125 -2.484375 L 1.578125 -2.484375 C 1.554688 -2.484375 1.546875 -2.472656 1.546875 -2.453125 L 1.546875 -0.078125 C 1.546875 -0.0234375 1.519531 0 1.46875 0 L 1.015625 0 C 0.960938 0 0.9375 -0.0234375 0.9375 -0.078125 L 0.9375 -2.453125 C 0.9375 -2.472656 0.929688 -2.484375 0.921875 -2.484375 L 0.1875 -2.484375 C 0.144531 -2.484375 0.125 -2.507812 0.125 -2.5625 L 0.125 -2.9375 C 0.125 -2.976562 0.144531 -3 0.1875 -3 Z M 2.3125 -3 "/></g></g></g><g fill="#124aff" fill-opacity="1"><g transform="translate(12.71148, 4.531833)"><g><path d="M 2.203125 0 C 2.160156 0 2.128906 -0.0195312 2.109375 -0.0625 L 2 -0.453125 C 1.988281 -0.472656 1.976562 -0.484375 1.96875 -0.484375 L 0.921875 -0.484375 C 0.898438 -0.484375 0.890625 -0.472656 0.890625 -0.453125 L 0.765625 -0.0625 C 0.753906 -0.0195312 0.726562 0 0.6875 0 L 0.1875 0 C 0.164062 0 0.144531 -0.00390625 0.125 -0.015625 C 0.113281 -0.0351562 0.113281 -0.0546875 0.125 -0.078125 L 1.046875 -2.953125 C 1.054688 -2.984375 1.082031 -3 1.125 -3 L 1.75 -3 C 1.789062 -3 1.820312 -2.984375 1.84375 -2.953125 L 2.75 -0.078125 C 2.757812 -0.078125 2.765625 -0.0703125 2.765625 -0.0625 C 2.765625 -0.0390625 2.753906 -0.0234375 2.734375 -0.015625 C 2.722656 -0.00390625 2.707031 0 2.6875 0 Z M 1.046875 -0.984375 C 1.035156 -0.960938 1.039062 -0.953125 1.0625 -0.953125 L 1.828125 -0.953125 C 1.835938 -0.953125 1.84375 -0.960938 1.84375 -0.984375 L 1.453125 -2.296875 C 1.453125 -2.304688 1.445312 -2.3125 1.4375 -2.3125 C 1.4375 -2.3125 1.429688 -2.304688 1.421875 -2.296875 Z M 1.046875 -0.984375 "/></g></g></g><g fill="#124aff" fill-opacity="1"><g transform="translate(16.028576, 4.531833)"><g><path d="M 0.328125 0 C 0.285156 0 0.265625 -0.0234375 0.265625 -0.078125 L 0.265625 -2.9375 C 0.265625 -2.976562 0.285156 -3 0.328125 -3 L 0.796875 -3 C 0.847656 -3 0.875 -2.976562 0.875 -2.9375 L 0.875 -0.546875 C 0.875 -0.523438 0.878906 -0.515625 0.890625 -0.515625 L 2.265625 -0.515625 C 2.316406 -0.515625 2.34375 -0.492188 2.34375 -0.453125 L 2.34375 -0.078125 C 2.34375 -0.0234375 2.316406 0 2.265625 0 Z M 0.328125 0 "/></g></g></g><g fill="#124aff" fill-opacity="1"><g transform="translate(18.919749, 4.531833)"><g/></g></g><g fill="#124aff" fill-opacity="1"><g transform="translate(20.210484, 4.531833)"><g><path d="M 1.3125 0.03125 C 1.09375 0.03125 0.898438 -0.0078125 0.734375 -0.09375 C 0.566406 -0.1875 0.4375 -0.3125 0.34375 -0.46875 C 0.25 -0.625 0.203125 -0.804688 0.203125 -1.015625 L 0.203125 -2 C 0.203125 -2.207031 0.25 -2.390625 0.34375 -2.546875 C 0.4375 -2.703125 0.566406 -2.820312 0.734375 -2.90625 C 0.898438 -3 1.09375 -3.046875 1.3125 -3.046875 C 1.539062 -3.046875 1.738281 -3.003906 1.90625 -2.921875 C 2.070312 -2.835938 2.203125 -2.71875 2.296875 -2.5625 C 2.390625 -2.414062 2.4375 -2.242188 2.4375 -2.046875 C 2.4375 -2.023438 2.410156 -2.007812 2.359375 -2 L 1.90625 -1.96875 L 1.890625 -1.96875 C 1.847656 -1.96875 1.828125 -1.976562 1.828125 -2 L 1.828125 -2.015625 C 1.828125 -2.171875 1.78125 -2.289062 1.6875 -2.375 C 1.59375 -2.46875 1.46875 -2.515625 1.3125 -2.515625 C 1.164062 -2.515625 1.046875 -2.46875 0.953125 -2.375 C 0.859375 -2.289062 0.8125 -2.171875 0.8125 -2.015625 L 0.8125 -0.984375 C 0.8125 -0.835938 0.859375 -0.71875 0.953125 -0.625 C 1.046875 -0.53125 1.164062 -0.484375 1.3125 -0.484375 C 1.46875 -0.484375 1.59375 -0.53125 1.6875 -0.625 C 1.78125 -0.71875 1.828125 -0.835938 1.828125 -0.984375 C 1.828125 -0.992188 1.832031 -1.003906 1.84375 -1.015625 C 1.851562 -1.023438 1.875 -1.03125 1.90625 -1.03125 L 2.359375 -1.015625 C 2.410156 -1.003906 2.4375 -0.992188 2.4375 -0.984375 L 2.4375 -0.96875 C 2.4375 -0.769531 2.390625 -0.59375 2.296875 -0.4375 C 2.203125 -0.289062 2.070312 -0.175781 1.90625 -0.09375 C 1.738281 -0.0078125 1.539062 0.03125 1.3125 0.03125 Z M 1.3125 0.03125 "/></g></g></g><g fill="#124aff" fill-opacity="1"><g transform="translate(23.25654, 4.531833)"><g><path d="M 1.859375 -2.9375 C 1.859375 -2.976562 1.882812 -3 1.9375 -3 L 2.390625 -3 C 2.441406 -3 2.46875 -2.976562 2.46875 -2.9375 L 2.46875 -0.078125 C 2.46875 -0.0234375 2.441406 0 2.390625 0 L 1.9375 0 C 1.882812 0 1.859375 -0.0234375 1.859375 -0.078125 L 1.859375 -1.234375 C 1.859375 -1.253906 1.847656 -1.265625 1.828125 -1.265625 L 0.890625 -1.265625 C 0.878906 -1.265625 0.875 -1.253906 0.875 -1.234375 L 0.875 -0.078125 C 0.875 -0.0234375 0.847656 0 0.796875 0 L 0.328125 0 C 0.285156 0 0.265625 -0.0234375 0.265625 -0.078125 L 0.265625 -2.9375 C 0.265625 -2.976562 0.285156 -3 0.328125 -3 L 0.796875 -3 C 0.847656 -3 0.875 -2.976562 0.875 -2.9375 L 0.875 -1.796875 C 0.875 -1.785156 0.878906 -1.78125 0.890625 -1.78125 L 1.828125 -1.78125 C 1.847656 -1.78125 1.859375 -1.785156 1.859375 -1.796875 Z M 1.859375 -2.9375 "/></g></g></g><g fill="#124aff" fill-opacity="1"><g transform="translate(26.388637, 4.531833)"><g><path d="M 2.203125 0 C 2.160156 0 2.128906 -0.0195312 2.109375 -0.0625 L 2 -0.453125 C 1.988281 -0.472656 1.976562 -0.484375 1.96875 -0.484375 L 0.921875 -0.484375 C 0.898438 -0.484375 0.890625 -0.472656 0.890625 -0.453125 L 0.765625 -0.0625 C 0.753906 -0.0195312 0.726562 0 0.6875 0 L 0.1875 0 C 0.164062 0 0.144531 -0.00390625 0.125 -0.015625 C 0.113281 -0.0351562 0.113281 -0.0546875 0.125 -0.078125 L 1.046875 -2.953125 C 1.054688 -2.984375 1.082031 -3 1.125 -3 L 1.75 -3 C 1.789062 -3 1.820312 -2.984375 1.84375 -2.953125 L 2.75 -0.078125 C 2.757812 -0.078125 2.765625 -0.0703125 2.765625 -0.0625 C 2.765625 -0.0390625 2.753906 -0.0234375 2.734375 -0.015625 C 2.722656 -0.00390625 2.707031 0 2.6875 0 Z M 1.046875 -0.984375 C 1.035156 -0.960938 1.039062 -0.953125 1.0625 -0.953125 L 1.828125 -0.953125 C 1.835938 -0.953125 1.84375 -0.960938 1.84375 -0.984375 L 1.453125 -2.296875 C 1.453125 -2.304688 1.445312 -2.3125 1.4375 -2.3125 C 1.4375 -2.3125 1.429688 -2.304688 1.421875 -2.296875 Z M 1.046875 -0.984375 "/></g></g></g><g fill="#124aff" fill-opacity="1"><g transform="translate(29.705735, 4.531833)"><g><path d="M 1.921875 0 C 1.890625 0 1.863281 -0.0195312 1.84375 -0.0625 L 1.3125 -1.21875 C 1.3125 -1.238281 1.300781 -1.25 1.28125 -1.25 L 0.890625 -1.25 C 0.878906 -1.25 0.875 -1.238281 0.875 -1.21875 L 0.875 -0.078125 C 0.875 -0.0234375 0.847656 0 0.796875 0 L 0.328125 0 C 0.285156 0 0.265625 -0.0234375 0.265625 -0.078125 L 0.265625 -2.9375 C 0.265625 -2.988281 0.285156 -3.015625 0.328125 -3.015625 L 1.546875 -3.015625 C 1.722656 -3.015625 1.878906 -2.972656 2.015625 -2.890625 C 2.160156 -2.816406 2.269531 -2.710938 2.34375 -2.578125 C 2.425781 -2.441406 2.46875 -2.285156 2.46875 -2.109375 C 2.46875 -1.910156 2.414062 -1.738281 2.3125 -1.59375 C 2.21875 -1.457031 2.082031 -1.363281 1.90625 -1.3125 C 1.90625 -1.300781 1.898438 -1.289062 1.890625 -1.28125 C 1.890625 -1.28125 1.894531 -1.273438 1.90625 -1.265625 L 2.46875 -0.078125 C 2.476562 -0.0664062 2.484375 -0.0546875 2.484375 -0.046875 C 2.484375 -0.0351562 2.472656 -0.0234375 2.453125 -0.015625 C 2.441406 -0.00390625 2.429688 0 2.421875 0 Z M 0.890625 -2.484375 C 0.878906 -2.484375 0.875 -2.476562 0.875 -2.46875 L 0.875 -1.734375 C 0.875 -1.722656 0.878906 -1.71875 0.890625 -1.71875 L 1.453125 -1.71875 C 1.566406 -1.71875 1.660156 -1.75 1.734375 -1.8125 C 1.816406 -1.882812 1.859375 -1.976562 1.859375 -2.09375 C 1.859375 -2.207031 1.816406 -2.300781 1.734375 -2.375 C 1.660156 -2.445312 1.566406 -2.484375 1.453125 -2.484375 Z M 0.890625 -2.484375 "/></g></g></g><g fill="#124aff" fill-opacity="1"><g transform="translate(32.777603, 4.531833)"><g><path d="M 2.3125 -3 C 2.363281 -3 2.390625 -2.976562 2.390625 -2.9375 L 2.390625 -2.5625 C 2.390625 -2.507812 2.363281 -2.484375 2.3125 -2.484375 L 1.578125 -2.484375 C 1.554688 -2.484375 1.546875 -2.472656 1.546875 -2.453125 L 1.546875 -0.078125 C 1.546875 -0.0234375 1.519531 0 1.46875 0 L 1.015625 0 C 0.960938 0 0.9375 -0.0234375 0.9375 -0.078125 L 0.9375 -2.453125 C 0.9375 -2.472656 0.929688 -2.484375 0.921875 -2.484375 L 0.1875 -2.484375 C 0.144531 -2.484375 0.125 -2.507812 0.125 -2.5625 L 0.125 -2.9375 C 0.125 -2.976562 0.144531 -3 0.1875 -3 Z M 2.3125 -3 "/></g></g></g><g fill="#124aff" fill-opacity="1"><g transform="translate(35.724707, 4.531833)"><g><path d="M 2.34375 -2.5625 C 2.34375 -2.507812 2.320312 -2.484375 2.28125 -2.484375 L 0.890625 -2.484375 C 0.878906 -2.484375 0.875 -2.476562 0.875 -2.46875 L 0.875 -1.796875 C 0.875 -1.785156 0.878906 -1.78125 0.890625 -1.78125 L 1.796875 -1.78125 C 1.835938 -1.78125 1.859375 -1.753906 1.859375 -1.703125 L 1.859375 -1.328125 C 1.859375 -1.285156 1.835938 -1.265625 1.796875 -1.265625 L 0.890625 -1.265625 C 0.878906 -1.265625 0.875 -1.253906 0.875 -1.234375 L 0.875 -0.546875 C 0.875 -0.523438 0.878906 -0.515625 0.890625 -0.515625 L 2.28125 -0.515625 C 2.320312 -0.515625 2.34375 -0.492188 2.34375 -0.453125 L 2.34375 -0.078125 C 2.34375 -0.0234375 2.320312 0 2.28125 0 L 0.328125 0 C 0.285156 0 0.265625 -0.0234375 0.265625 -0.078125 L 0.265625 -2.9375 C 0.265625 -2.976562 0.285156 -3 0.328125 -3 L 2.28125 -3 C 2.320312 -3 2.34375 -2.976562 2.34375 -2.9375 Z M 2.34375 -2.5625 "/></g></g></g><g fill="#124aff" fill-opacity="1"><g transform="translate(38.667507, 4.531833)"><g><path d="M 1.921875 0 C 1.890625 0 1.863281 -0.0195312 1.84375 -0.0625 L 1.3125 -1.21875 C 1.3125 -1.238281 1.300781 -1.25 1.28125 -1.25 L 0.890625 -1.25 C 0.878906 -1.25 0.875 -1.238281 0.875 -1.21875 L 0.875 -0.078125 C 0.875 -0.0234375 0.847656 0 0.796875 0 L 0.328125 0 C 0.285156 0 0.265625 -0.0234375 0.265625 -0.078125 L 0.265625 -2.9375 C 0.265625 -2.988281 0.285156 -3.015625 0.328125 -3.015625 L 1.546875 -3.015625 C 1.722656 -3.015625 1.878906 -2.972656 2.015625 -2.890625 C 2.160156 -2.816406 2.269531 -2.710938 2.34375 -2.578125 C 2.425781 -2.441406 2.46875 -2.285156 2.46875 -2.109375 C 2.46875 -1.910156 2.414062 -1.738281 2.3125 -1.59375 C 2.21875 -1.457031 2.082031 -1.363281 1.90625 -1.3125 C 1.90625 -1.300781 1.898438 -1.289062 1.890625 -1.28125 C 1.890625 -1.28125 1.894531 -1.273438 1.90625 -1.265625 L 2.46875 -0.078125 C 2.476562 -0.0664062 2.484375 -0.0546875 2.484375 -0.046875 C 2.484375 -0.0351562 2.472656 -0.0234375 2.453125 -0.015625 C 2.441406 -0.00390625 2.429688 0 2.421875 0 Z M 0.890625 -2.484375 C 0.878906 -2.484375 0.875 -2.476562 0.875 -2.46875 L 0.875 -1.734375 C 0.875 -1.722656 0.878906 -1.71875 0.890625 -1.71875 L 1.453125 -1.71875 C 1.566406 -1.71875 1.660156 -1.75 1.734375 -1.8125 C 1.816406 -1.882812 1.859375 -1.976562 1.859375 -2.09375 C 1.859375 -2.207031 1.816406 -2.300781 1.734375 -2.375 C 1.660156 -2.445312 1.566406 -2.484375 1.453125 -2.484375 Z M 0.890625 -2.484375 "/></g></g></g><g fill="#124aff" fill-opacity="1"><g transform="translate(41.739373, 4.531833)"><g/></g></g><g fill="#124aff" fill-opacity="1"><g transform="translate(43.03011, 4.531833)"><g><path d="M 1.328125 0.046875 C 1.109375 0.046875 0.910156 0 0.734375 -0.09375 C 0.566406 -0.1875 0.4375 -0.3125 0.34375 -0.46875 C 0.25 -0.632812 0.203125 -0.828125 0.203125 -1.046875 L 0.203125 -1.96875 C 0.203125 -2.175781 0.25 -2.359375 0.34375 -2.515625 C 0.4375 -2.679688 0.566406 -2.8125 0.734375 -2.90625 C 0.910156 -3 1.109375 -3.046875 1.328125 -3.046875 C 1.554688 -3.046875 1.753906 -3 1.921875 -2.90625 C 2.097656 -2.8125 2.234375 -2.679688 2.328125 -2.515625 C 2.421875 -2.359375 2.46875 -2.175781 2.46875 -1.96875 L 2.46875 -1.046875 C 2.46875 -0.828125 2.421875 -0.632812 2.328125 -0.46875 C 2.234375 -0.300781 2.097656 -0.171875 1.921875 -0.078125 C 1.753906 0.00390625 1.554688 0.046875 1.328125 0.046875 Z M 1.328125 -0.46875 C 1.484375 -0.46875 1.609375 -0.515625 1.703125 -0.609375 C 1.804688 -0.710938 1.859375 -0.847656 1.859375 -1.015625 L 1.859375 -1.96875 C 1.859375 -2.132812 1.8125 -2.265625 1.71875 -2.359375 C 1.625 -2.460938 1.492188 -2.515625 1.328125 -2.515625 C 1.171875 -2.515625 1.046875 -2.460938 0.953125 -2.359375 C 0.859375 -2.265625 0.8125 -2.132812 0.8125 -1.96875 L 0.8125 -1.015625 C 0.8125 -0.847656 0.859375 -0.710938 0.953125 -0.609375 C 1.046875 -0.515625 1.171875 -0.46875 1.328125 -0.46875 Z M 1.328125 -0.46875 "/></g></g></g><g fill="#124aff" fill-opacity="1"><g transform="translate(46.132093, 4.531833)"><g><path d="M 2.34375 -2.5625 C 2.34375 -2.507812 2.316406 -2.484375 2.265625 -2.484375 L 0.890625 -2.484375 C 0.878906 -2.484375 0.875 -2.476562 0.875 -2.46875 L 0.875 -1.796875 C 0.875 -1.785156 0.878906 -1.78125 0.890625 -1.78125 L 1.796875 -1.78125 C 1.835938 -1.78125 1.859375 -1.753906 1.859375 -1.703125 L 1.859375 -1.328125 C 1.859375 -1.285156 1.835938 -1.265625 1.796875 -1.265625 L 0.890625 -1.265625 C 0.878906 -1.265625 0.875 -1.253906 0.875 -1.234375 L 0.875 -0.078125 C 0.875 -0.0234375 0.847656 0 0.796875 0 L 0.328125 0 C 0.285156 0 0.265625 -0.0234375 0.265625 -0.078125 L 0.265625 -2.9375 C 0.265625 -2.976562 0.285156 -3 0.328125 -3 L 2.265625 -3 C 2.316406 -3 2.34375 -2.976562 2.34375 -2.9375 Z M 2.34375 -2.5625 "/></g></g></g><g fill="#124aff" fill-opacity="1"><g transform="translate(48.971639, 4.531833)"><g/></g></g><g fill="#124aff" fill-opacity="1"><g transform="translate(50.262371, 4.531833)"><g><path d="M 0.328125 0 C 0.285156 0 0.265625 -0.0234375 0.265625 -0.078125 L 0.265625 -2.9375 C 0.265625 -2.976562 0.285156 -3 0.328125 -3 L 0.796875 -3 C 0.847656 -3 0.875 -2.976562 0.875 -2.9375 L 0.875 -0.078125 C 0.875 -0.0234375 0.847656 0 0.796875 0 Z M 0.328125 0 "/></g></g></g><g fill="#124aff" fill-opacity="1"><g transform="translate(51.824153, 4.531833)"><g><path d="M 0.328125 0 C 0.285156 0 0.265625 -0.0234375 0.265625 -0.078125 L 0.265625 -2.9375 C 0.265625 -2.976562 0.285156 -3 0.328125 -3 L 0.78125 -3 C 0.8125 -3 0.835938 -2.984375 0.859375 -2.953125 L 1.9375 -1.171875 C 1.945312 -1.160156 1.953125 -1.15625 1.953125 -1.15625 C 1.960938 -1.164062 1.96875 -1.175781 1.96875 -1.1875 L 1.96875 -2.9375 C 1.96875 -2.976562 1.992188 -3 2.046875 -3 L 2.484375 -3 C 2.535156 -3 2.5625 -2.976562 2.5625 -2.9375 L 2.5625 -0.078125 C 2.5625 -0.0234375 2.535156 0 2.484375 0 L 2.046875 0 C 2.015625 0 1.988281 -0.015625 1.96875 -0.046875 L 0.890625 -1.859375 C 0.878906 -1.867188 0.867188 -1.867188 0.859375 -1.859375 C 0.859375 -1.859375 0.859375 -1.851562 0.859375 -1.84375 L 0.859375 -0.078125 C 0.859375 -0.0234375 0.835938 0 0.796875 0 Z M 0.328125 0 "/></g></g></g><g fill="#124aff" fill-opacity="1"><g transform="translate(55.08532, 4.531833)"><g><path d="M 0.328125 0 C 0.285156 0 0.265625 -0.0234375 0.265625 -0.078125 L 0.265625 -2.9375 C 0.265625 -2.976562 0.285156 -3 0.328125 -3 L 1.390625 -3 C 1.597656 -3 1.785156 -2.960938 1.953125 -2.890625 C 2.117188 -2.816406 2.242188 -2.710938 2.328125 -2.578125 C 2.421875 -2.441406 2.46875 -2.28125 2.46875 -2.09375 L 2.46875 -0.90625 C 2.46875 -0.726562 2.421875 -0.570312 2.328125 -0.4375 C 2.242188 -0.300781 2.117188 -0.191406 1.953125 -0.109375 C 1.785156 -0.0351562 1.597656 0 1.390625 0 Z M 0.875 -0.546875 C 0.875 -0.523438 0.878906 -0.515625 0.890625 -0.515625 L 1.40625 -0.515625 C 1.539062 -0.515625 1.648438 -0.554688 1.734375 -0.640625 C 1.816406 -0.734375 1.859375 -0.859375 1.859375 -1.015625 L 1.859375 -2 C 1.859375 -2.144531 1.816406 -2.257812 1.734375 -2.34375 C 1.648438 -2.4375 1.539062 -2.484375 1.40625 -2.484375 L 0.890625 -2.484375 C 0.878906 -2.484375 0.875 -2.476562 0.875 -2.46875 Z M 0.875 -0.546875 "/></g></g></g><g fill="#124aff" fill-opacity="1"><g transform="translate(58.174393, 4.531833)"><g><path d="M 0.328125 0 C 0.285156 0 0.265625 -0.0234375 0.265625 -0.078125 L 0.265625 -2.9375 C 0.265625 -2.976562 0.285156 -3 0.328125 -3 L 0.796875 -3 C 0.847656 -3 0.875 -2.976562 0.875 -2.9375 L 0.875 -0.078125 C 0.875 -0.0234375 0.847656 0 0.796875 0 Z M 0.328125 0 "/></g></g></g><g fill="#124aff" fill-opacity="1"><g transform="translate(59.736175, 4.531833)"><g><path d="M 2.203125 0 C 2.160156 0 2.128906 -0.0195312 2.109375 -0.0625 L 2 -0.453125 C 1.988281 -0.472656 1.976562 -0.484375 1.96875 -0.484375 L 0.921875 -0.484375 C 0.898438 -0.484375 0.890625 -0.472656 0.890625 -0.453125 L 0.765625 -0.0625 C 0.753906 -0.0195312 0.726562 0 0.6875 0 L 0.1875 0 C 0.164062 0 0.144531 -0.00390625 0.125 -0.015625 C 0.113281 -0.0351562 0.113281 -0.0546875 0.125 -0.078125 L 1.046875 -2.953125 C 1.054688 -2.984375 1.082031 -3 1.125 -3 L 1.75 -3 C 1.789062 -3 1.820312 -2.984375 1.84375 -2.953125 L 2.75 -0.078125 C 2.757812 -0.078125 2.765625 -0.0703125 2.765625 -0.0625 C 2.765625 -0.0390625 2.753906 -0.0234375 2.734375 -0.015625 C 2.722656 -0.00390625 2.707031 0 2.6875 0 Z M 1.046875 -0.984375 C 1.035156 -0.960938 1.039062 -0.953125 1.0625 -0.953125 L 1.828125 -0.953125 C 1.835938 -0.953125 1.84375 -0.960938 1.84375 -0.984375 L 1.453125 -2.296875 C 1.453125 -2.304688 1.445312 -2.3125 1.4375 -2.3125 C 1.4375 -2.3125 1.429688 -2.304688 1.421875 -2.296875 Z M 1.046875 -0.984375 "/></g></g></g><g fill="#124aff" fill-opacity="1"><g transform="translate(63.05327, 4.531833)"><g><path d="M 0.328125 0 C 0.285156 0 0.265625 -0.0234375 0.265625 -0.078125 L 0.265625 -2.9375 C 0.265625 -2.976562 0.285156 -3 0.328125 -3 L 0.78125 -3 C 0.8125 -3 0.835938 -2.984375 0.859375 -2.953125 L 1.9375 -1.171875 C 1.945312 -1.160156 1.953125 -1.15625 1.953125 -1.15625 C 1.960938 -1.164062 1.96875 -1.175781 1.96875 -1.1875 L 1.96875 -2.9375 C 1.96875 -2.976562 1.992188 -3 2.046875 -3 L 2.484375 -3 C 2.535156 -3 2.5625 -2.976562 2.5625 -2.9375 L 2.5625 -0.078125 C 2.5625 -0.0234375 2.535156 0 2.484375 0 L 2.046875 0 C 2.015625 0 1.988281 -0.015625 1.96875 -0.046875 L 0.890625 -1.859375 C 0.878906 -1.867188 0.867188 -1.867188 0.859375 -1.859375 C 0.859375 -1.859375 0.859375 -1.851562 0.859375 -1.84375 L 0.859375 -0.078125 C 0.859375 -0.0234375 0.835938 0 0.796875 0 Z M 0.328125 0 "/></g></g></g><g fill="#124aff" fill-opacity="1"><g transform="translate(66.314437, 4.531833)"><g/></g></g><g fill="#124aff" fill-opacity="1"><g transform="translate(67.605174, 4.531833)"><g><path d="M 1.859375 -2.9375 C 1.859375 -2.976562 1.882812 -3 1.9375 -3 L 2.390625 -3 C 2.441406 -3 2.46875 -2.976562 2.46875 -2.9375 L 2.46875 -0.078125 C 2.46875 -0.0234375 2.441406 0 2.390625 0 L 1.9375 0 C 1.882812 0 1.859375 -0.0234375 1.859375 -0.078125 L 1.859375 -1.234375 C 1.859375 -1.253906 1.847656 -1.265625 1.828125 -1.265625 L 0.890625 -1.265625 C 0.878906 -1.265625 0.875 -1.253906 0.875 -1.234375 L 0.875 -0.078125 C 0.875 -0.0234375 0.847656 0 0.796875 0 L 0.328125 0 C 0.285156 0 0.265625 -0.0234375 0.265625 -0.078125 L 0.265625 -2.9375 C 0.265625 -2.976562 0.285156 -3 0.328125 -3 L 0.796875 -3 C 0.847656 -3 0.875 -2.976562 0.875 -2.9375 L 0.875 -1.796875 C 0.875 -1.785156 0.878906 -1.78125 0.890625 -1.78125 L 1.828125 -1.78125 C 1.847656 -1.78125 1.859375 -1.785156 1.859375 -1.796875 Z M 1.859375 -2.9375 "/></g></g></g><g fill="#124aff" fill-opacity="1"><g transform="translate(70.737271, 4.531833)"><g><path d="M 1.328125 0.046875 C 1.109375 0.046875 0.910156 0 0.734375 -0.09375 C 0.566406 -0.1875 0.4375 -0.3125 0.34375 -0.46875 C 0.25 -0.632812 0.203125 -0.828125 0.203125 -1.046875 L 0.203125 -1.96875 C 0.203125 -2.175781 0.25 -2.359375 0.34375 -2.515625 C 0.4375 -2.679688 0.566406 -2.8125 0.734375 -2.90625 C 0.910156 -3 1.109375 -3.046875 1.328125 -3.046875 C 1.554688 -3.046875 1.753906 -3 1.921875 -2.90625 C 2.097656 -2.8125 2.234375 -2.679688 2.328125 -2.515625 C 2.421875 -2.359375 2.46875 -2.175781 2.46875 -1.96875 L 2.46875 -1.046875 C 2.46875 -0.828125 2.421875 -0.632812 2.328125 -0.46875 C 2.234375 -0.300781 2.097656 -0.171875 1.921875 -0.078125 C 1.753906 0.00390625 1.554688 0.046875 1.328125 0.046875 Z M 1.328125 -0.46875 C 1.484375 -0.46875 1.609375 -0.515625 1.703125 -0.609375 C 1.804688 -0.710938 1.859375 -0.847656 1.859375 -1.015625 L 1.859375 -1.96875 C 1.859375 -2.132812 1.8125 -2.265625 1.71875 -2.359375 C 1.625 -2.460938 1.492188 -2.515625 1.328125 -2.515625 C 1.171875 -2.515625 1.046875 -2.460938 0.953125 -2.359375 C 0.859375 -2.265625 0.8125 -2.132812 0.8125 -1.96875 L 0.8125 -1.015625 C 0.8125 -0.847656 0.859375 -0.710938 0.953125 -0.609375 C 1.046875 -0.515625 1.171875 -0.46875 1.328125 -0.46875 Z M 1.328125 -0.46875 "/></g></g></g><g fill="#124aff" fill-opacity="1"><g transform="translate(73.839255, 4.531833)"><g><path d="M 1.359375 0.03125 C 1.128906 0.03125 0.929688 -0.0078125 0.765625 -0.09375 C 0.597656 -0.175781 0.46875 -0.296875 0.375 -0.453125 C 0.28125 -0.609375 0.234375 -0.789062 0.234375 -1 L 0.234375 -2.9375 C 0.234375 -2.976562 0.257812 -3 0.3125 -3 L 0.765625 -3 C 0.816406 -3 0.84375 -2.976562 0.84375 -2.9375 L 0.84375 -1 C 0.84375 -0.84375 0.890625 -0.71875 0.984375 -0.625 C 1.078125 -0.53125 1.203125 -0.484375 1.359375 -0.484375 C 1.503906 -0.484375 1.625 -0.53125 1.71875 -0.625 C 1.8125 -0.71875 1.859375 -0.84375 1.859375 -1 L 1.859375 -2.9375 C 1.859375 -2.976562 1.882812 -3 1.9375 -3 L 2.390625 -3 C 2.441406 -3 2.46875 -2.976562 2.46875 -2.9375 L 2.46875 -1 C 2.46875 -0.789062 2.421875 -0.609375 2.328125 -0.453125 C 2.234375 -0.296875 2.101562 -0.175781 1.9375 -0.09375 C 1.769531 -0.0078125 1.578125 0.03125 1.359375 0.03125 Z M 1.359375 0.03125 "/></g></g></g><g fill="#124aff" fill-opacity="1"><g transform="translate(76.975655, 4.531833)"><g><path d="M 1.28125 0.03125 C 1.050781 0.03125 0.851562 -0.00390625 0.6875 -0.078125 C 0.519531 -0.148438 0.390625 -0.253906 0.296875 -0.390625 C 0.203125 -0.523438 0.15625 -0.679688 0.15625 -0.859375 L 0.15625 -0.9375 C 0.15625 -0.988281 0.179688 -1.015625 0.234375 -1.015625 L 0.6875 -1.015625 C 0.738281 -1.015625 0.765625 -0.992188 0.765625 -0.953125 L 0.765625 -0.890625 C 0.765625 -0.773438 0.816406 -0.675781 0.921875 -0.59375 C 1.023438 -0.519531 1.160156 -0.484375 1.328125 -0.484375 C 1.484375 -0.484375 1.597656 -0.515625 1.671875 -0.578125 C 1.742188 -0.640625 1.78125 -0.722656 1.78125 -0.828125 C 1.78125 -0.890625 1.753906 -0.941406 1.703125 -0.984375 C 1.660156 -1.035156 1.597656 -1.078125 1.515625 -1.109375 C 1.441406 -1.148438 1.316406 -1.203125 1.140625 -1.265625 C 0.953125 -1.328125 0.789062 -1.394531 0.65625 -1.46875 C 0.519531 -1.539062 0.40625 -1.632812 0.3125 -1.75 C 0.226562 -1.863281 0.1875 -2.007812 0.1875 -2.1875 C 0.1875 -2.363281 0.226562 -2.515625 0.3125 -2.640625 C 0.40625 -2.765625 0.53125 -2.863281 0.6875 -2.9375 C 0.84375 -3.007812 1.023438 -3.046875 1.234375 -3.046875 C 1.453125 -3.046875 1.644531 -3.003906 1.8125 -2.921875 C 1.988281 -2.847656 2.125 -2.738281 2.21875 -2.59375 C 2.3125 -2.457031 2.359375 -2.300781 2.359375 -2.125 L 2.359375 -2.078125 C 2.359375 -2.023438 2.335938 -2 2.296875 -2 L 1.84375 -2 C 1.789062 -2 1.765625 -2.015625 1.765625 -2.046875 L 1.765625 -2.09375 C 1.765625 -2.207031 1.710938 -2.304688 1.609375 -2.390625 C 1.515625 -2.472656 1.382812 -2.515625 1.21875 -2.515625 C 1.070312 -2.515625 0.960938 -2.484375 0.890625 -2.421875 C 0.816406 -2.367188 0.78125 -2.296875 0.78125 -2.203125 C 0.78125 -2.128906 0.800781 -2.066406 0.84375 -2.015625 C 0.882812 -1.972656 0.945312 -1.929688 1.03125 -1.890625 C 1.125 -1.847656 1.265625 -1.796875 1.453125 -1.734375 C 1.648438 -1.660156 1.804688 -1.59375 1.921875 -1.53125 C 2.035156 -1.476562 2.140625 -1.394531 2.234375 -1.28125 C 2.328125 -1.164062 2.375 -1.019531 2.375 -0.84375 C 2.375 -0.664062 2.328125 -0.507812 2.234375 -0.375 C 2.148438 -0.25 2.023438 -0.148438 1.859375 -0.078125 C 1.691406 -0.00390625 1.5 0.03125 1.28125 0.03125 Z M 1.28125 0.03125 "/></g></g></g><g fill="#124aff" fill-opacity="1"><g transform="translate(79.952872, 4.531833)"><g><path d="M 0.328125 0 C 0.285156 0 0.265625 -0.0234375 0.265625 -0.078125 L 0.265625 -2.9375 C 0.265625 -2.976562 0.285156 -3 0.328125 -3 L 0.796875 -3 C 0.847656 -3 0.875 -2.976562 0.875 -2.9375 L 0.875 -0.078125 C 0.875 -0.0234375 0.847656 0 0.796875 0 Z M 0.328125 0 "/></g></g></g><g fill="#124aff" fill-opacity="1"><g transform="translate(81.514654, 4.531833)"><g><path d="M 0.328125 0 C 0.285156 0 0.265625 -0.0234375 0.265625 -0.078125 L 0.265625 -2.9375 C 0.265625 -2.976562 0.285156 -3 0.328125 -3 L 0.78125 -3 C 0.8125 -3 0.835938 -2.984375 0.859375 -2.953125 L 1.9375 -1.171875 C 1.945312 -1.160156 1.953125 -1.15625 1.953125 -1.15625 C 1.960938 -1.164062 1.96875 -1.175781 1.96875 -1.1875 L 1.96875 -2.9375 C 1.96875 -2.976562 1.992188 -3 2.046875 -3 L 2.484375 -3 C 2.535156 -3 2.5625 -2.976562 2.5625 -2.9375 L 2.5625 -0.078125 C 2.5625 -0.0234375 2.535156 0 2.484375 0 L 2.046875 0 C 2.015625 0 1.988281 -0.015625 1.96875 -0.046875 L 0.890625 -1.859375 C 0.878906 -1.867188 0.867188 -1.867188 0.859375 -1.859375 C 0.859375 -1.859375 0.859375 -1.851562 0.859375 -1.84375 L 0.859375 -0.078125 C 0.859375 -0.0234375 0.835938 0 0.796875 0 Z M 0.328125 0 "/></g></g></g><g clip-path="url(#61aaafbb71)"><g fill="#124aff" fill-opacity="1"><g transform="translate(84.775816, 4.531833)"><g><path d="M 1.3125 0.03125 C 1.09375 0.03125 0.898438 -0.0078125 0.734375 -0.09375 C 0.566406 -0.1875 0.4375 -0.3125 0.34375 -0.46875 C 0.25 -0.625 0.203125 -0.804688 0.203125 -1.015625 L 0.203125 -1.984375 C 0.203125 -2.191406 0.25 -2.375 0.34375 -2.53125 C 0.4375 -2.695312 0.566406 -2.820312 0.734375 -2.90625 C 0.898438 -3 1.09375 -3.046875 1.3125 -3.046875 C 1.53125 -3.046875 1.722656 -3 1.890625 -2.90625 C 2.054688 -2.820312 2.1875 -2.707031 2.28125 -2.5625 C 2.375 -2.414062 2.421875 -2.253906 2.421875 -2.078125 L 2.421875 -2.0625 C 2.421875 -2.007812 2.398438 -1.984375 2.359375 -1.984375 L 1.890625 -1.984375 C 1.867188 -1.984375 1.851562 -1.988281 1.84375 -2 C 1.832031 -2.007812 1.828125 -2.019531 1.828125 -2.03125 L 1.828125 -2.046875 C 1.828125 -2.179688 1.78125 -2.289062 1.6875 -2.375 C 1.59375 -2.46875 1.46875 -2.515625 1.3125 -2.515625 C 1.164062 -2.515625 1.046875 -2.46875 0.953125 -2.375 C 0.859375 -2.28125 0.8125 -2.15625 0.8125 -2 L 0.8125 -1 C 0.8125 -0.84375 0.859375 -0.71875 0.953125 -0.625 C 1.054688 -0.53125 1.1875 -0.484375 1.34375 -0.484375 C 1.488281 -0.484375 1.601562 -0.519531 1.6875 -0.59375 C 1.78125 -0.675781 1.828125 -0.789062 1.828125 -0.9375 L 1.828125 -1.125 C 1.828125 -1.132812 1.816406 -1.140625 1.796875 -1.140625 L 1.34375 -1.140625 C 1.300781 -1.140625 1.28125 -1.164062 1.28125 -1.21875 L 1.28125 -1.578125 C 1.28125 -1.617188 1.300781 -1.640625 1.34375 -1.640625 L 2.359375 -1.640625 C 2.398438 -1.640625 2.421875 -1.617188 2.421875 -1.578125 L 2.421875 -1.03125 C 2.421875 -0.8125 2.375 -0.617188 2.28125 -0.453125 C 2.195312 -0.296875 2.070312 -0.175781 1.90625 -0.09375 C 1.738281 -0.0078125 1.539062 0.03125 1.3125 0.03125 Z M 1.3125 0.03125 "/></g></g></g></g></g></g></g></g></g></svg>